<?xml version="1.0" encoding="UTF-8" standalone="no"?>
<!DOCTYPE svg PUBLIC "-//W3C//DTD SVG 1.1//EN"
 "http://www.w3.org/Graphics/SVG/1.1/DTD/svg11.dtd">
<!-- Generated by graphviz version 2.38.0 (20140413.2041)
 -->
<!-- Title: %3 Pages: 1 -->
<svg width="481pt" height="624pt"
 viewBox="0.00 0.00 481.00 624.00" xmlns="http://www.w3.org/2000/svg" xmlns:xlink="http://www.w3.org/1999/xlink">
<g id="graph0" class="graph" transform="scale(1 1) rotate(0) translate(4 620)">
<title>%3</title>
<polygon fill="white" stroke="none" points="-4,4 -4,-620 477,-620 477,4 -4,4"/>
<!-- start -->
<g id="node1" class="node"><title>start</title>
<polygon fill="#87cefa" stroke="black" points="442,-616 388,-616 388,-580 442,-580 442,-616"/>
<text text-anchor="middle" x="415" y="-594.3" font-family="Times,serif" font-size="14.00">開始</text>
</g>
<!-- draw_layout -->
<g id="node3" class="node"><title>draw_layout</title>
<polygon fill="#7fff00" stroke="black" points="473,-543 357,-543 357,-507 473,-507 473,-543"/>
<text text-anchor="middle" x="415" y="-521.3" font-family="Times,serif" font-size="14.00">畫出且擺好星星</text>
</g>
<!-- start&#45;&gt;draw_layout -->
<g id="edge1" class="edge"><title>start&#45;&gt;draw_layout</title>
<path fill="none" stroke="black" d="M415,-579.813C415,-571.789 415,-562.047 415,-553.069"/>
<polygon fill="black" stroke="black" points="418.5,-553.029 415,-543.029 411.5,-553.029 418.5,-553.029"/>
</g>
<!-- end -->
<g id="node2" class="node"><title>end</title>
<polygon fill="#87cefa" stroke="black" points="233,-37 179,-37 179,-1 233,-1 233,-37"/>
<text text-anchor="middle" x="206" y="-15.3" font-family="Times,serif" font-size="14.00">結束</text>
</g>
<!-- animate -->
<g id="node4" class="node"><title>animate</title>
<polygon fill="#7fff00" stroke="black" points="374,-470 300,-470 300,-432 374,-432 374,-470"/>
<text text-anchor="middle" x="337" y="-454.8" font-family="Times,serif" font-size="14.00">移動星星</text>
<text text-anchor="middle" x="337" y="-439.8" font-family="Times,serif" font-size="14.00">animate</text>
</g>
<!-- draw_layout&#45;&gt;animate -->
<g id="edge2" class="edge"><title>draw_layout&#45;&gt;animate</title>
<path fill="none" stroke="black" d="M396.515,-506.937C386.872,-498.036 374.89,-486.976 364.21,-477.117"/>
<polygon fill="black" stroke="black" points="366.438,-474.41 356.716,-470.199 361.69,-479.554 366.438,-474.41"/>
</g>
<!-- star_clicked -->
<g id="node6" class="node"><title>star_clicked</title>
<polygon fill="#ff00ff" stroke="black" points="218,-395 101,-361 218,-327 335,-361 218,-395"/>
<text text-anchor="middle" x="218" y="-364.4" font-family="Times,serif" font-size="12.00">星星被 click 了嗎？</text>
<text text-anchor="middle" x="218" y="-351.4" font-family="Times,serif" font-size="12.00"> </text>
</g>
<!-- animate&#45;&gt;star_clicked -->
<g id="edge3" class="edge"><title>animate&#45;&gt;star_clicked</title>
<path fill="none" stroke="black" d="M312.631,-431.98C297.064,-420.468 276.498,-405.259 258.516,-391.962"/>
<polygon fill="black" stroke="black" points="260.585,-389.138 250.463,-386.006 256.423,-394.766 260.585,-389.138"/>
</g>
<!-- speedup -->
<g id="node5" class="node"><title>speedup</title>
<polygon fill="#7fff00" stroke="black" points="465,-38 349,-38 349,-0 465,-0 465,-38"/>
<text text-anchor="middle" x="407" y="-22.8" font-family="Times,serif" font-size="14.00">增加星星且加速</text>
<text text-anchor="middle" x="407" y="-7.8" font-family="Times,serif" font-size="14.00">下一關</text>
</g>
<!-- speedup&#45;&gt;draw_layout -->
<g id="edge10" class="edge"><title>speedup&#45;&gt;draw_layout</title>
<path fill="none" stroke="black" d="M419.901,-38.2013C432.567,-57.8888 450,-90.6753 450,-122 450,-452 450,-452 450,-452 450,-468.487 442.485,-485.155 434.419,-498.295"/>
<polygon fill="black" stroke="black" points="431.407,-496.506 428.833,-506.783 437.254,-500.354 431.407,-496.506"/>
</g>
<!-- is_red -->
<g id="node7" class="node"><title>is_red</title>
<polygon fill="#ff00ff" stroke="black" points="321,-276 220,-242 321,-208 422,-242 321,-276"/>
<text text-anchor="middle" x="321" y="-245.4" font-family="Times,serif" font-size="12.00">是紅色星星嗎？</text>
<text text-anchor="middle" x="321" y="-232.4" font-family="Times,serif" font-size="12.00"> </text>
</g>
<!-- star_clicked&#45;&gt;is_red -->
<g id="edge4" class="edge"><title>star_clicked&#45;&gt;is_red</title>
<path fill="none" stroke="black" d="M241.372,-333.451C256.196,-316.612 275.505,-294.679 291.396,-276.628"/>
<polygon fill="black" stroke="black" points="294.447,-278.459 298.428,-268.64 289.193,-273.833 294.447,-278.459"/>
<text text-anchor="middle" x="286" y="-297.8" font-family="Times,serif" font-size="14.00">Yes</text>
</g>
<!-- reach_bottom -->
<g id="node9" class="node"><title>reach_bottom</title>
<polygon fill="#ff00ff" stroke="black" points="101,-276 1.42109e-14,-242 101,-208 202,-242 101,-276"/>
<text text-anchor="middle" x="101" y="-245.4" font-family="Times,serif" font-size="12.00">星星碰底了嗎？</text>
<text text-anchor="middle" x="101" y="-232.4" font-family="Times,serif" font-size="12.00"> </text>
</g>
<!-- star_clicked&#45;&gt;reach_bottom -->
<g id="edge5" class="edge"><title>star_clicked&#45;&gt;reach_bottom</title>
<path fill="none" stroke="black" d="M185.834,-336.045C175.597,-327.882 164.478,-318.428 155,-309 145.214,-299.265 135.394,-287.867 126.862,-277.308"/>
<polygon fill="black" stroke="black" points="129.571,-275.092 120.611,-269.439 124.09,-279.446 129.571,-275.092"/>
<text text-anchor="middle" x="163.5" y="-297.8" font-family="Times,serif" font-size="14.00">No</text>
</g>
<!-- is_red&#45;&gt;end -->
<g id="edge7" class="edge"><title>is_red&#45;&gt;end</title>
<path fill="none" stroke="black" d="M281.948,-221.095C258.186,-206.733 229.671,-184.967 215,-157 196.933,-122.561 198.24,-76.3724 201.564,-47.3993"/>
<polygon fill="black" stroke="black" points="205.071,-47.5684 202.9,-37.1985 198.131,-46.659 205.071,-47.5684"/>
<text text-anchor="middle" x="223.5" y="-119.3" font-family="Times,serif" font-size="14.00">No</text>
</g>
<!-- is_final -->
<g id="node8" class="node"><title>is_final</title>
<polygon fill="#ff00ff" stroke="black" points="330,-157 241,-123 330,-89 419,-123 330,-157"/>
<text text-anchor="middle" x="330" y="-126.4" font-family="Times,serif" font-size="12.00">最後一關嗎？</text>
<text text-anchor="middle" x="330" y="-113.4" font-family="Times,serif" font-size="12.00"> </text>
</g>
<!-- is_red&#45;&gt;is_final -->
<g id="edge6" class="edge"><title>is_red&#45;&gt;is_final</title>
<path fill="none" stroke="black" d="M323.483,-208.72C324.486,-195.676 325.659,-180.439 326.73,-166.512"/>
<polygon fill="black" stroke="black" points="330.248,-166.414 327.525,-156.175 323.268,-165.877 330.248,-166.414"/>
<text text-anchor="middle" x="337" y="-178.8" font-family="Times,serif" font-size="14.00">Yes</text>
</g>
<!-- is_final&#45;&gt;end -->
<g id="edge8" class="edge"><title>is_final&#45;&gt;end</title>
<path fill="none" stroke="black" d="M302.48,-99.3629C282.324,-82.7826 255.038,-60.3379 234.627,-43.548"/>
<polygon fill="black" stroke="black" points="236.841,-40.8373 226.895,-37.1876 232.394,-46.2433 236.841,-40.8373"/>
<text text-anchor="middle" x="279" y="-59.8" font-family="Times,serif" font-size="14.00">Yes</text>
</g>
<!-- is_final&#45;&gt;speedup -->
<g id="edge9" class="edge"><title>is_final&#45;&gt;speedup</title>
<path fill="none" stroke="black" d="M349.43,-96.2611C361.008,-80.9241 375.664,-61.5094 387.291,-46.1077"/>
<polygon fill="black" stroke="black" points="390.169,-48.1054 393.4,-38.0154 384.582,-43.8878 390.169,-48.1054"/>
<text text-anchor="middle" x="385.5" y="-59.8" font-family="Times,serif" font-size="14.00">No</text>
</g>
<!-- reach_bottom&#45;&gt;end -->
<g id="edge11" class="edge"><title>reach_bottom&#45;&gt;end</title>
<path fill="none" stroke="black" d="M111.118,-211.141C122.112,-179.957 140.947,-129.972 162,-89 169.703,-74.0095 179.714,-58.0959 188.242,-45.3334"/>
<polygon fill="black" stroke="black" points="191.143,-47.2915 193.861,-37.0514 185.35,-43.3612 191.143,-47.2915"/>
<text text-anchor="middle" x="173" y="-119.3" font-family="Times,serif" font-size="14.00">Yes</text>
</g>
<!-- reach_bottom&#45;&gt;star_clicked -->
<g id="edge12" class="edge"><title>reach_bottom&#45;&gt;star_clicked</title>
<path fill="none" stroke="black" d="M135.73,-264.444C147.917,-272.843 161.238,-283.084 172,-294 180.57,-302.693 188.65,-313.143 195.575,-323.137"/>
<polygon fill="black" stroke="black" points="192.872,-325.389 201.348,-331.746 198.686,-321.491 192.872,-325.389"/>
<text text-anchor="middle" x="193.5" y="-297.8" font-family="Times,serif" font-size="14.00">No</text>
</g>
</g>
</svg>
